<svg xmlns="http://www.w3.org/2000/svg" viewBox="0 0 688 358.47"><defs><style>.cls-1{fill:#00e0d0;}.cls-2,.cls-3,.cls-4{fill:#fff;}.cls-3,.cls-4{stroke:#fff;}.cls-4{stroke-miterlimit:10;}</style></defs><title>logo</title><g id="Camada_2" data-name="Camada 2"><g id="_Grupo_" data-name="&lt;Grupo&gt;"><polygon id="_Caminho_" data-name="&lt;Caminho&gt;" class="cls-1" points="265.38 156.36 232.41 42.01 201.6 30.75 229.54 32.06 141.49 0 132.69 3.19 123.89 0 35.84 32.06 63.78 30.75 32.97 42.01 0 156.36 26.19 131.1 2.7 174.06 16.24 262.74 16.24 262.74 24.64 227.12 27.88 272.31 104.48 335.28 104.48 307.85 116.03 344.78 132.69 358.48 132.69 358.48 132.69 358.48 149.35 344.78 160.9 307.85 160.9 335.28 237.5 272.31 240.74 227.12 249.14 262.74 249.14 262.74 262.68 174.06 239.19 131.1 265.38 156.36"/><g id="_Grupo_2" data-name="&lt;Grupo&gt;"><polygon id="_Caminho_2" data-name="&lt;Caminho&gt;" class="cls-2" points="205.97 109.67 197.7 87.32 182.7 97.42 163.41 97.42 156.06 116.71 156.06 90.69 164.64 82.42 199.23 82.42 191.58 55.79 153.62 44.15 132.8 70.17 111.98 44.15 74.02 55.79 66.36 82.42 100.96 82.42 109.53 90.69 109.53 116.71 102.18 97.42 82.89 97.42 67.89 87.32 59.63 109.67 93.3 134.47 80.44 164.16 96.21 177.63 128.21 164.78 128.21 149.78 106.77 135.39 116.57 127.43 132.8 127.43 149.02 127.43 158.82 135.39 137.39 149.78 137.39 164.78 169.38 177.63 185.15 164.16 172.29 134.47 205.97 109.67"/><polygon id="_Caminho_3" data-name="&lt;Caminho&gt;" class="cls-2" points="145.04 173.96 132.8 175.49 120.55 173.96 96.21 188.35 100.65 207.64 124.22 227.23 132.8 205.19 141.37 227.23 164.94 207.64 169.38 188.35 145.04 173.96"/></g></g><path id="_Caminho_composto_" data-name="&lt;Caminho composto&gt;" class="cls-3" d="M491.46,241.57c8-.56,14.77-8.11,14.77-16.11,0-8.23-7-16.12-15.56-16.12H463.51a1.69,1.69,0,0,1-1.8-1.92v-5.63a1.58,1.58,0,0,1,1.8-1.69h27.28c13.41,0,24.9,11.61,24.9,25.24,0,11.39-8.11,21.76-19.16,24.91l17.59,29.3a2.28,2.28,0,0,1,.33.91c0,.22-.33.33-1,.33H505a3,3,0,0,1-2.48-1.69l-17-28.29H466.22V279.1a1.5,1.5,0,0,1-1.69,1.69h-5.86c-1.24,0-1.81-.56-1.81-1.69V243.49a1.81,1.81,0,0,1,1.81-1.92Z" transform="translate(-69 -111.67)"/><path id="_Caminho_composto_2" data-name="&lt;Caminho composto&gt;" class="cls-3" d="M526.4,279V201.68c0-1.13.68-1.58,1.81-1.58h53.3a1.49,1.49,0,0,1,1.69,1.69v5.63c0,1.36-.56,2-1.8,2H535.87V223h36.18a1.79,1.79,0,0,1,1.69,1.91v5.64a1.79,1.79,0,0,1-1.69,1.91H535.87v14h36.18a1.69,1.69,0,0,1,1.69,1.8V254a1.87,1.87,0,0,1-1.69,1.92H535.87v15.55h45.19a1.87,1.87,0,0,1,2,1.92v5.52a1.72,1.72,0,0,1-1.91,1.91h-53C527,280.79,526.4,280.23,526.4,279Z" transform="translate(-69 -111.67)"/><path id="_Caminho_4" data-name="&lt;Caminho&gt;" class="cls-2" d="M661,200c1.69,0,2.14.79,2.14,1.81l-.56,77.31c0,1.13-.68,1.69-2,1.69h-7.21l-50-67.62V255.1l19.72.11a1.69,1.69,0,0,1,1.69,1.8v5.75a1.8,1.8,0,0,1-1.8,1.92l-27.28-.12c-1.12,0-1.69-.56-1.69-1.46V201.45a1.81,1.81,0,0,1,1.92-1.8h7.78a2.18,2.18,0,0,1,1.8.9l47.9,64.58.45-63.45a1.74,1.74,0,0,1,1.69-1.7H661Z" transform="translate(-69 -111.67)"/><path id="_Caminho_5" data-name="&lt;Caminho&gt;" class="cls-1" d="M634.49,273.13v5.75a1.88,1.88,0,0,1-1.81,1.91H595.6a1.54,1.54,0,0,1-1.69-1.69v-5.74a1.78,1.78,0,0,1,1.81-2H632.8A1.69,1.69,0,0,1,634.49,273.13Z" transform="translate(-69 -111.67)"/><path id="_Caminho_composto_3" data-name="&lt;Caminho composto&gt;" class="cls-2" d="M757,239.21a41.59,41.59,0,1,1-41.59-41.59A41.7,41.7,0,0,1,757,239.21Zm-9.24,0a32.41,32.41,0,1,0-32.35,32.45A32.45,32.45,0,0,0,747.76,239.21Z" transform="translate(-69 -111.67)"/><path id="_Caminho_composto_4" data-name="&lt;Caminho composto&gt;" class="cls-2" d="M507.24,320.07a14.6,14.6,0,0,0,3,8.68c5.53,7.32,12.18,12.62,12.18,23.55a25.49,25.49,0,0,1-23.78,25.47,1.78,1.78,0,0,1-1.81-2v-5a1.86,1.86,0,0,1,1.81-1.81c8-1,15-9.58,15-17.46,0-9.13-9.47-14.32-13.08-21.64a22.9,22.9,0,0,1-2.48-10.26c0-12.85,10.6-24.91,24.35-25.58a1.77,1.77,0,0,1,1.8,2v5.19c0,1.13-.79,1.58-1.8,1.69A17.5,17.5,0,0,0,511.75,309C511.07,309.7,507.24,315.68,507.24,320.07Z" transform="translate(-69 -111.67)"/><path id="_Caminho_composto_5" data-name="&lt;Caminho composto&gt;" class="cls-2" d="M536.88,375.52V298.21c0-1.13.68-1.58,1.81-1.58H592a1.5,1.5,0,0,1,1.69,1.69V304c0,1.36-.57,2-1.81,2H546.35v13.53h36.18a1.79,1.79,0,0,1,1.69,1.91v5.64a1.79,1.79,0,0,1-1.69,1.91H546.35v14h36.18a1.69,1.69,0,0,1,1.69,1.8v5.75a1.87,1.87,0,0,1-1.69,1.92H546.35V368h45.2a1.86,1.86,0,0,1,2,1.92v5.52a1.72,1.72,0,0,1-1.91,1.91h-53C537.45,377.32,536.88,376.76,536.88,375.52Z" transform="translate(-69 -111.67)"/><path id="_Caminho_6" data-name="&lt;Caminho&gt;" class="cls-2" d="M671.45,296.52c1.7,0,2.15.78,2.15,1.8L673,375.63c0,1.13-.67,1.69-2,1.69h-7.21l-50-67.62v41.93l19.72.11a1.69,1.69,0,0,1,1.69,1.8v5.75a1.8,1.8,0,0,1-1.8,1.92l-27.27-.11c-1.13,0-1.69-.57-1.69-1.47V298a1.81,1.81,0,0,1,1.91-1.8h7.78a2.19,2.19,0,0,1,1.8.9l47.9,64.58.45-63.45a1.73,1.73,0,0,1,1.69-1.69h5.52Z" transform="translate(-69 -111.67)"/><path id="_Caminho_7" data-name="&lt;Caminho&gt;" class="cls-1" d="M645,369.66v5.75a1.88,1.88,0,0,1-1.8,1.91H606.09a1.54,1.54,0,0,1-1.69-1.69v-5.74c0-1.13.56-2,1.8-2h37.08A1.69,1.69,0,0,1,645,369.66Z" transform="translate(-69 -111.67)"/><path id="_Caminho_composto_6" data-name="&lt;Caminho composto&gt;" class="cls-2" d="M756.21,374.62a2.76,2.76,0,0,1,.34,1.35c0,.9-.68,1.35-1.91,1.35H686.45c-1.24,0-2.14-.67-2.14-1.69a1.7,1.7,0,0,1,.22-1L718.12,298a2.21,2.21,0,0,1,2.37-1.46h.33c1.47,0,1.69.33,2.26,1.46C723.08,298,756.21,374.51,756.21,374.62Zm-58.49-6.88h45.64L720.6,314.1Z" transform="translate(-69 -111.67)"/><rect id="_Retângulo_" data-name="&lt;Retângulo&gt;" class="cls-1" x="409.17" y="184.58" width="9.24" height="111.29" transform="translate(7.63 -210.94) rotate(15.06)"/><path id="_Caminho_8" data-name="&lt;Caminho&gt;" class="cls-4" d="M434.43,238a22.49,22.49,0,0,0,7.44-16.57c0-12.29-10.25-21.19-21.41-21.3H393.18c-1.24,0-1.8.56-1.8,1.69v5.63a1.69,1.69,0,0,0,1.8,1.92h26.71c7.33,0,12.4,5.52,12.4,12.73a12.55,12.55,0,0,1-12.19,12.5l-2.49,9.26h5.89c7.67,0,13.07,6.65,13.07,14-.22,7-5.74,13.75-13.07,13.75H394.87V243.83H408l2.49-9.25h-23.1a1.78,1.78,0,0,0-1.8,1.81V279.1c0,1.13.79,1.69,1.92,1.69h36.06c12.06,0,22.54-10.48,22.54-22.88A23.37,23.37,0,0,0,434.43,238Z" transform="translate(-69 -111.67)"/></g></svg>